<svg width="29" height="58" viewBox="0 0 29 58" fill="none" xmlns="http://www.w3.org/2000/svg">
<path d="M3.7251 0H8.71401L8.78053 1.0643L8.71401 13.8359L8.58097 16.0976L8.51445 16.4967H8.64749L8.78053 16.0976L9.57876 15.1663L10.4435 14.3681L11.5743 13.6364L12.6386 13.1042L13.5034 12.7716L14.5677 12.5055L15.9646 12.306H17.1619L18.7584 12.5055L19.9557 12.7716L20.7539 13.0377L21.8847 13.5698L22.949 14.3016L23.4812 14.7672L24.2794 15.4989L24.8781 16.2306L25.4768 17.1619L25.9424 17.9601L26.5411 19.5565L26.8071 20.5543L27.0067 22.4834V25.0111L26.8071 26.541L26.5411 27.5388L25.9424 29.0022L25.3437 30.0665L24.4125 31.3304L23.4812 32.2616L22.816 32.7938L21.8182 33.459L20.7539 33.9911L19.357 34.5233L17.6941 34.7894L16.9623 34.8559H15.8315L13.969 34.6563L12.9047 34.3237L11.5743 33.6585L10.3105 32.7273L9.77831 32.2616L9.11312 31.3969L8.91357 31.1308L8.71401 31.0643V32.8603L8.64749 34.4568H3.7251V0ZM14.8337 16.6297L13.7694 16.8293L12.8382 17.1619L11.9734 17.6275L11.0422 18.4257L10.51 18.9579L9.91135 19.8226L9.57876 20.4878L9.24616 22.0177L9.17964 22.4834V24.4124L9.44572 26.0089L9.71179 26.8071L10.3105 27.8714L10.7761 28.4701L11.1087 28.8692L11.8404 29.4679L12.4391 29.867L13.1708 30.1996L13.836 30.4656L14.6342 30.5987H16.5632L17.4945 30.3991L18.8914 29.8004L19.357 29.4679L19.6896 29.1353L19.9557 28.9357V28.8027L20.1553 28.7361L20.7539 27.8049L21.0865 27.3392L21.4856 26.0089L21.7517 24.612V22.7494L21.4191 21.02L21.0865 20.0222L20.3548 18.8248L19.7561 18.1596L19.224 17.694L18.2262 17.1619L17.2284 16.8293L16.6298 16.6962L16.0311 16.6297H14.8337Z" fill="#3EB5FD"/>
<path d="M1.72949 49.0244L1.92905 49.0909L2.32816 49.7561L3.1929 50.6209L4.45676 51.5521L5.38803 52.1508L6.91796 52.949L8.84701 53.6807L10.5765 54.0798L12.2395 54.3459L12.9712 54.4124H15.6319L17.1619 54.2129L19.0244 53.8138L20.4213 53.3481L21.8847 52.7495L23.3481 51.9512L24.4124 51.2195L25.3437 50.4878L26.1419 49.6896L26.6741 49.0244L26.9401 49.0909L27.5388 49.7561L28.337 50.4213V50.7539L27.8049 51.4856L26.541 52.7495L25.8093 53.3481L24.8115 54.0798L23.6142 54.745L22.3503 55.4102L20.4878 56.1419L18.0931 56.8071L16.8958 57.0067L15.898 57.0732H12.3725L10.9756 56.9402L9.77827 56.6741L8.44789 56.3415L7.31707 55.9424L5.9867 55.3437L4.92239 54.8116L3.72506 54.1464L2.79379 53.4812L2.06208 52.8825L0.59867 51.4191L0.133038 50.8204V50.6874H0L0.0665189 50.4213L0.798226 49.8226L1.3969 49.224L1.72949 49.0244Z" fill="#40B5FD"/>
</svg>
